<?xml version="1.0" encoding="UTF-8"?>
<svg id="Capa_1" data-name="Capa 1" xmlns="http://www.w3.org/2000/svg" viewBox="0 0 696.1 718.24">
  <defs>
    <style>
      .cls-1 {
        fill: #f97000;
      }
    </style>
  </defs>
  <path class="cls-1" d="M500.49,426.39c-1.45-4.68-3.46-9.28-4.23-14.07-1.7-10.58,2.96-19.16,10.07-26.48,3.93-4.05,8.34-7.64,12.6-11.36,2.76-2.41,5.95-4.4,8.36-7.1,2.09-2.34,3.36-5.4,5-8.15-2.59-1.17-5.09-2.67-7.8-3.45-7.09-2.03-10.93-6.57-11.3-13.99-.08-1.49-.03-3-.02-4.49,.05-10.04-1.51-13.04-11.31-15.95-8.39-2.5-17.13-4.13-25.83-5.15-7.38-.86-14.94-.61-22.39-.29-9.58,.42-13.76,4-16.8,13.16-.44,1.32-1.31,2.49-1.98,3.73-1.22-.97-2.72-1.74-3.6-2.96-3.52-4.83-6.59-10.02-10.39-14.61-1.56-1.88-4.57-2.56-6.91-3.79-1.44,2.83-4.22,5.74-4.07,8.49,.43,7.75,2.11,15.42,3.2,23.14,1.58,11.13,3.49,22.24,4.43,33.43,.5,5.99-1.14,6.6-6.15,3.04-6.37-4.52-11.85-2.58-17.55,2.46-.86-2.38-1.57-4.17-2.14-6-3.63-11.51-11.25-18.5-23.21-20.76-10.03-1.9-19.89-1.38-29.5,2-2.78,.98-5.49,2.49-7.82,4.29-4.62,3.56-5.74,8.08-3.02,13.22,1.92,3.64,4.65,6.86,7.1,10.2,1.77,2.41,3.93,4.56,5.5,7.08,2.34,3.76,1.25,6.68-3.01,7.43-14.11,2.49-32.47-4.03-39.44-15.2-3.65-5.84-3.29-11.91-1.49-18.22,2.37-8.28,5.16-16.52,6.61-24.97,1.11-6.46,.88-13.27,.4-19.86-.47-6.45-3.7-11.69-9.87-14.58-16.56-7.76-27.65-21.05-36.61-36.38-3.69-6.31-7.55-12.65-10.16-19.42-5.34-13.87-15.13-24.05-25.74-33.8-5.14-4.72-10.19-9.61-14.73-14.89-5.8-6.76-5.18-11.73,1.81-17.44,4.12-3.36,8.74-6.09,12.91-9.39,8.67-6.86,8.98-13.67,1.08-21.29-2.39-2.31-5.12-4.27-7.48-6.61-4.91-4.88-4.18-9.44,2.23-11.92,5.09-1.97,10.49-3.12,15.75-4.65,15.32-4.45,18.15-13.04,7.38-24.97-14.91-16.51-32.19-30.34-50.88-42.43-5.41-3.5-10.63-7.29-16.91-11.62,8.2-4.49,15.38-8.56,22.75-12.28,1.05-.53,3.04,.48,4.48,1.06,10.27,4.2,20.16,10.24,30.84,12.38,25.41,5.09,48.95-1.05,69.54-16.89,9.91-7.62,10.48-16.04,2.74-25.91-1.21-1.54-2.56-2.98-4.46-5.16,77.3-12.36,150.44-1.9,220.57,32-.67,1.27-1.11,2.13-1.56,2.97-4.69,8.86-2.41,17.26,6.97,20.92,8.12,3.17,16.89,4.66,25.37,6.9,3.52,.93,7.16,1.58,10.54,2.88,5.16,1.99,6.14,6.04,2.37,10.15-3.02,3.3-6.83,5.88-9.81,9.21-1.85,2.07-4.24,5.31-3.73,7.36,.51,2.03,4.17,3.72,6.78,4.69,4.02,1.5,8.43,1.94,12.46,3.41,9.58,3.48,13.82,9.9,14.19,20.08,.21,5.8,.49,11.64,1.42,17.36,1.97,12.23,9.06,21.25,19.1,28.05,18.28,12.38,33.23,27.84,42.81,47.81,3.89,8.12,7.07,16.9,8.65,25.73,1.82,10.15-4.13,14.9-14.37,12.94-7.66-1.47-15.21-3.53-22.87-4.96-2.04-.38-4.33,.57-6.5,.91,.64,2.09,.68,4.77,2.04,6.18,5.77,5.97,11.8,11.71,17.98,17.27,7.92,7.12,16.19,13.86,24.09,21.01,3.56,3.22,6.83,6.85,9.74,10.66,1.24,1.63,2.05,4.48,1.47,6.27-.38,1.16-3.66,2.07-5.55,1.93-6.62-.5-13.18-1.61-19.79-2.28-3.63-.37-7.33-.72-10.94-.39-5.08,.46-6.5,3.87-3.49,8,1.76,2.41,3.88,4.57,5.97,6.71,11.32,11.58,15.17,25.33,10.87,40.82-4.47,16.14-9.5,32.13-14.79,48.02-2.76,8.3-7.41,15.58-17.28,16.65-3.72,.4-7.74,.19-11.33-.79-14.82-4.06-18.82,7.6-17.86,17.55,1.8,18.66,11.57,32.57,26.54,43.18,5.57,3.95,11.42,7.49,16.98,11.44,1.33,.94,1.99,2.81,2.97,4.25-1.65,.88-3.27,2.42-4.97,2.53-5.31,.34-10.66,.21-15.99,.15-17.12-.18-30.15,7.15-37.71,22.34-4.99,10.04-8.96,20.73-12.03,31.52-3.18,11.2-8.55,15.85-20.13,13.39-4.59-.98-10.11-.67-14.47,.98-9.4,3.56-11.59,12.1-4.83,19.55,13.76,15.15,22.49,33.27,31.62,51.16,5.62,11.02,5.88,8.67-4.39,14.87-41.79,25.26-86.78,41.96-135.31,47.92-20.74,2.55-41.78,2.76-62.69,3.92-2.03,.11-4.11-.61-5.95-.92,2.78-10.6,5.85-20.59,7.95-30.77,2.92-14.13,3.23-28.38-1.44-42.29-1.36-4.05-3.18-8.11-5.59-11.62-5.03-7.33-4.84-14.67-.87-22.09,4.27-7.97,10.67-13.88,18.59-18.32,2.82-1.58,5.04-4.19,7.77-5.97,3.01-1.96,6.12-4.12,9.5-5.1,9.34-2.71,13.01-9.53,13.51-18.25,.43-7.6,.02-15.27-.41-22.88-.32-5.75,1.14-9.44,6.66-10.54,8.27-1.65,16.74-2.27,25.13-3.27,11.53-1.37,23.25-1.82,34.54-4.28,11.37-2.47,20.4-9.63,27.07-19.26,5.53-7.99,5.35-15.92-.83-23.44-8.54-10.39-19.63-15.56-33.29-14.59-6.09,.43-10.7,3.7-14.27,8.25-3.89,4.97-7.19,10.39-10.88,15.52-5.17,7.19-10.31,6.99-15.13-.53-4.55-7.1-4.74-14.98-4.35-23.08,.21-4.36,.39-9.07-.97-13.09-3.73-10.99-8.36-21.67-12.48-32.53-1.17-3.08-2.01-6.33-2.57-9.58-.53-3.11,1.06-5.32,4.27-3.85,6.15,2.8,10.54-.08,15.67-2.97,13.54-7.64,28.28-12.21,43.63-14.61,5.66-.89,10.08,2.39,13.81,5.89,10.19,9.55,20.04,19.46,29.99,29.28,1.16,1.15,2.06,2.58,3.07,3.87,.26-.27,.53-.55,.79-.82ZM301,80.69c-5.54,.93-11.23,1.38-16.59,2.93-6.04,1.75-8.3,6.38-6.78,12.52,1.51,6.08,5.04,10.49,11.57,11.64,7.76,1.37,14.66,4.34,19.97,10.33,4.7,5.3,4.46,8.67-.49,13.68-5.15,5.2-10.4,10.33-15.14,15.88-3.9,4.56-3.64,7.69,.77,11.71,11.18,10.21,22.46,20.32,33.93,30.2,5.79,4.99,16.7,4.02,22.04-1.34,2.68-2.69,2.44-4.98-.87-6.74-2.93-1.56-6.2-2.57-8.95-4.37-4.56-2.99-8.94-6.28-13.14-9.76-.98-.81-.92-2.86-1.34-4.35,1.49-.13,3.05-.59,4.46-.32,3.41,.67,6.71,2.1,10.14,2.47,5.05,.55,10.19,.63,15.27,.49,1.36-.04,3.66-1.51,3.77-2.51,.15-1.44-.99-3.37-2.15-4.52-2.6-2.56-5.71-4.61-8.34-7.14-8.5-8.16-12.23-17.99-9.93-29.76,1.44-7.38,6.64-12,12.08-16.54,5.25-4.39,5.1-7.59-1.02-10.53-15.51-7.46-31.52-13.39-49.23-13.99Z"/>
  <path class="cls-1" d="M81.7,604.56c-6.8-8.7-13.5-16.71-19.59-25.17-27.86-38.69-45.28-81.94-53.68-128.6-4.13-22.97-5.66-46.41-8.15-69.66-.25-2.31,.48-6.51,1.68-6.89,4.51-1.41,9.51-4.21,14.09,.02,1.83,1.69,3.63,3.48,5.07,5.49,7.91,11.01,19.15,15.33,32.09,14.92,8.4-.27,16.78-2.04,25.12-3.45,3.18-.54,5.56-2.12,6.17-6.13,.35-2.28,2.77-4.35,4.49-6.3,2.74-3.11,5.93-5.84,8.46-9.1,2.43-3.13,3.46-6.78,1.35-10.72-.52-.97-1.07-2.48-.68-3.31,2.87-6.09-1.48-9.36-5.01-12.7-7.64-7.21-16.91-11.6-26.73-15.11-2.59-.93-5.39-2.81-6.84-5.06-3.22-5-6.36-10.27-8.27-15.86-4.88-14.28-16.04-19.71-29.51-21.89-14.24-2.31-14.39-2.1-10.57-16.08,2.7-9.88,5.74-19.66,8.79-30.03,5.73,2.01,10.73,3.67,15.67,5.5,18.46,6.85,37.55,11.11,56.99,13.98,11.81,1.74,20.9,7.89,28.13,17.29,13.33,17.32,27.9,33.57,44.94,47.33,12.56,10.14,26.69,16.8,42.99,19.73,15.78,2.84,29.73,10.52,40.56,22.88,1.42,1.62,2.69,3.4,3.8,5.25,3.77,6.26,3.41,6.94-3.48,8.29-2.76,.54-5.58,1.11-8.16,2.16-4.95,2.02-5.85,5.2-2.55,9.33,1.95,2.43,4.28,4.79,6.91,6.4,7.15,4.37,11.15,10.9,13.41,18.57,6.26,21.23,8.88,42.87,6.35,64.97-.68,5.9-3.43,8.41-9.41,9.05-3.31,.35-6.64,.58-9.92,1.08-8.96,1.36-13.92,8.3-12.36,17.22,.6,3.43,1.56,6.82,1.89,10.27,.92,9.44-3.17,14.35-12.69,14.22-9.12-.13-18.26-.98-27.34-1.98-32.71-3.62-60.25,7.18-83.48,29.77-12.24,11.91-23.08,24.91-28.83,41.38-.25,.73-.77,1.37-1.69,2.94Zm12.8-79.75c-7.23,.15-10.27,5.24-6.72,11.39,1.74,3.02,3.69,5.92,5.57,8.86,1.66,2.61,3.77,3.47,6.77,2.07,5.01-2.33,8.15-7.9,7.11-12.97-1.02-4.99-7.11-9.46-12.73-9.34Z"/>
  <path class="cls-1" d="M151.74,232.1c2.79,.51,5.33,.52,7.49,1.43,14.83,6.24,30.7,10.92,44.12,19.43,25.18,15.97,42.63,37.97,42.59,69.91,0,.17,0,.33,0,.5-.33,6.01-.12,12.73-6.81,15.39-7.02,2.79-14.05,1.47-20.22-3.21-.53-.4-1.11-.79-1.51-1.3-7.21-9.13-15.62-9.9-25.55-4.38-6.03,3.35-9.09,1.09-8.96-5.8,.11-5.96,1.05-12.04,.17-17.84-.76-5.01-2.7-10.33-5.64-14.43-5.6-7.82-12.31-14.84-18.48-22.26-2.02-2.42-3.88-4.99-5.7-7.57-2.4-3.39-2.75-6.7-1.78-11.1,1.24-5.61,.3-11.7,.3-18.77Z"/>
  <path class="cls-1" d="M33.17,207.64c12.15-26.12,26.92-50.12,44.79-72.15,7.33-9.03,15.43-17.43,22.99-26.28,2.78-3.26,5.63-4.2,9.55-2.33,6.89,3.28,14.16,5.87,20.71,9.72,14.76,8.69,29.22,17.89,43.68,27.06,3.92,2.48,7.63,5.39,11.04,8.53,1.95,1.8,3.1,4.47,4.61,6.75-2.45,1.01-4.81,2.52-7.35,2.95-9.16,1.57-18.37,2.87-27.58,4.09-8.16,1.08-16.17,.03-23.02-4.58-9.21-6.21-17.98-13.06-26.84-19.77-2.37-1.8-4.29-4.17-6.54-6.15-7.62-6.73-13.93-5.66-19.08,3.07-3.92,6.64-4.17,13.45-1.28,20.53,2.89,7.09,5.34,14.2,4.81,22.14-1.16,17.19-23.17,40.45-46.62,28.76-1.18-.59-2.26-1.36-3.88-2.34Z"/>
  <path class="cls-1" d="M4.15,310.3c15.12,8.55,30.13,17,45.09,25.53,3.69,2.1,3.96,5.25,2.53,9.02-2.51,6.64-7.76,10.38-13.94,12.69-11.24,4.21-22.92,5.39-34.79,3.31-1.19-.21-3.1-1.89-3.05-2.79,.88-15.38,2.02-30.74,3.11-46.11,.01-.15,.17-.28,1.04-1.66Z"/>
  <path class="cls-1" d="M654.66,379.96c.7-7.41-.1-13.45,5.56-15.89,5.39-2.32,9.48,1.94,13.19,5.13,8.67,7.46,15.59,16.39,20.49,26.74,3.7,7.83,2.91,11.89-3.54,17.54-5.36,4.69-7.41,10.79-8.78,17.43-.35,1.7-1.57,4.21-2.8,4.48-1.51,.33-3.97-.87-5.08-2.2-1.53-1.82-2.85-4.3-3.09-6.62-1.28-12.53-7.29-23.36-11.85-34.73-1.82-4.54-3.2-9.26-4.09-11.88Z"/>
  <path class="cls-1" d="M94.51,524.81c5.62-.12,11.7,4.35,12.73,9.34,1.04,5.08-2.1,10.64-7.11,12.97-3.01,1.4-5.11,.54-6.77-2.07-1.87-2.94-3.82-5.84-5.57-8.86-3.55-6.15-.51-11.24,6.72-11.39Z"/>
</svg>